<svg width="15" height="25" viewBox="0 0 15 25" fill="none" xmlns="http://www.w3.org/2000/svg">
<path d="M0.924348 0.567499C0.57284 0.919113 0.375373 1.39594 0.375373 1.89312C0.375373 2.39031 0.57284 2.86713 0.924348 3.21875L10.2056 12.5L0.924348 21.7812C0.582802 22.1349 0.393813 22.6085 0.398085 23.1001C0.402357 23.5917 0.599547 24.062 0.947187 24.4097C1.29483 24.7573 1.7651 24.9545 2.25672 24.9588C2.74834 24.963 3.22197 24.774 3.5756 24.4325L14.1825 13.8256C14.534 13.474 14.7314 12.9972 14.7314 12.5C14.7314 12.0028 14.534 11.526 14.1825 11.1744L3.5756 0.567499C3.22398 0.215991 2.74716 0.0185242 2.24997 0.0185242C1.75279 0.0185242 1.27596 0.215991 0.924348 0.567499Z" fill="white"/>
</svg>
