<svg width="24" height="24" viewBox="0 0 24 24" fill="none" xmlns="http://www.w3.org/2000/svg">
<path fill-rule="evenodd" clip-rule="evenodd" d="M12 8.5C11.5404 8.5 11.0852 8.59053 10.6606 8.76642C10.236 8.94231 9.85013 9.20012 9.52513 9.52513C9.20012 9.85013 8.94231 10.236 8.76642 10.6606C8.59053 11.0852 8.5 11.5404 8.5 12C8.5 12.4596 8.59053 12.9148 8.76642 13.3394C8.94231 13.764 9.20012 14.1499 9.52513 14.4749C9.85013 14.7999 10.236 15.0577 10.6606 15.2336C11.0852 15.4095 11.5404 15.5 12 15.5C12.9283 15.5 13.8185 15.1313 14.4749 14.4749C15.1313 13.8185 15.5 12.9283 15.5 12C15.5 11.0717 15.1313 10.1815 14.4749 9.52513C13.8185 8.86875 12.9283 8.5 12 8.5ZM6.5 12C6.5 10.5413 7.07946 9.14236 8.11091 8.11091C9.14236 7.07946 10.5413 6.5 12 6.5C13.4587 6.5 14.8576 7.07946 15.8891 8.11091C16.9205 9.14236 17.5 10.5413 17.5 12C17.5 13.4587 16.9205 14.8576 15.8891 15.8891C14.8576 16.9205 13.4587 17.5 12 17.5C10.5413 17.5 9.14236 16.9205 8.11091 15.8891C7.07946 14.8576 6.5 13.4587 6.5 12ZM12 2C12.2652 2 12.5196 2.10536 12.7071 2.29289C12.8946 2.48043 13 2.73478 13 3V4.5C13 4.76522 12.8946 5.01957 12.7071 5.20711C12.5196 5.39464 12.2652 5.5 12 5.5C11.7348 5.5 11.4804 5.39464 11.2929 5.20711C11.1054 5.01957 11 4.76522 11 4.5V3C11 2.73478 11.1054 2.48043 11.2929 2.29289C11.4804 2.10536 11.7348 2 12 2ZM12 18.5C12.2652 18.5 12.5196 18.6054 12.7071 18.7929C12.8946 18.9804 13 19.2348 13 19.5V21C13 21.2652 12.8946 21.5196 12.7071 21.7071C12.5196 21.8946 12.2652 22 12 22C11.7348 22 11.4804 21.8946 11.2929 21.7071C11.1054 21.5196 11 21.2652 11 21V19.5C11 19.2348 11.1054 18.9804 11.2929 18.7929C11.4804 18.6054 11.7348 18.5 12 18.5ZM5.5 12C5.5 12.2652 5.39464 12.5196 5.20711 12.7071C5.01957 12.8946 4.76522 13 4.5 13H3C2.73478 13 2.48043 12.8946 2.29289 12.7071C2.10536 12.5196 2 12.2652 2 12C2 11.7348 2.10536 11.4804 2.29289 11.2929C2.48043 11.1054 2.73478 11 3 11H4.5C4.76522 11 5.01957 11.1054 5.20711 11.2929C5.39464 11.4804 5.5 11.7348 5.5 12ZM22 12C22 12.2652 21.8946 12.5196 21.7071 12.7071C21.5196 12.8946 21.2652 13 21 13H19.5C19.2348 13 18.9804 12.8946 18.7929 12.7071C18.6054 12.5196 18.5 12.2652 18.5 12C18.5 11.7348 18.6054 11.4804 18.7929 11.2929C18.9804 11.1054 19.2348 11 19.5 11H21C21.2652 11 21.5196 11.1054 21.7071 11.2929C21.8946 11.4804 22 11.7348 22 12ZM7.404 16.596C7.59147 16.7835 7.69679 17.0378 7.69679 17.303C7.69679 17.5682 7.59147 17.8225 7.404 18.01L6.344 19.071C6.15649 19.2586 5.90212 19.3641 5.63685 19.3642C5.37158 19.3643 5.11714 19.259 4.9295 19.0715C4.74186 18.884 4.63639 18.6296 4.6363 18.3644C4.6362 18.0991 4.74149 17.8446 4.929 17.657L5.989 16.597C6.08187 16.504 6.19216 16.4303 6.31356 16.3799C6.43496 16.3296 6.56508 16.3037 6.6965 16.3037C6.82792 16.3037 6.95804 16.3296 7.07944 16.3799C7.20084 16.4303 7.31113 16.503 7.404 16.596ZM19.071 4.929C19.2585 5.11653 19.3638 5.37084 19.3638 5.636C19.3638 5.90116 19.2585 6.15547 19.071 6.343L18.011 7.403C17.9188 7.49857 17.8085 7.57483 17.6866 7.62732C17.5646 7.67982 17.4334 7.7075 17.3006 7.70874C17.1678 7.70999 17.0361 7.68478 16.9132 7.63459C16.7903 7.58439 16.6786 7.51022 16.5846 7.41639C16.4907 7.32257 16.4163 7.21097 16.366 7.08811C16.3156 6.96525 16.2902 6.83359 16.2913 6.70081C16.2923 6.56803 16.3198 6.43679 16.3721 6.31475C16.4245 6.19271 16.5006 6.08231 16.596 5.99L17.656 4.929C17.7489 4.83602 17.8592 4.76226 17.9806 4.71194C18.102 4.66162 18.2321 4.63571 18.3635 4.63571C18.4949 4.63571 18.625 4.66162 18.7464 4.71194C18.8678 4.76226 18.9781 4.83602 19.071 4.929ZM16.596 16.596C16.7835 16.4085 17.0378 16.3032 17.303 16.3032C17.5682 16.3032 17.8225 16.4085 18.01 16.596L19.071 17.656C19.2586 17.8435 19.3641 18.0979 19.3642 18.3631C19.3643 18.6284 19.259 18.8829 19.0715 19.0705C18.884 19.2581 18.6296 19.3636 18.3644 19.3637C18.0991 19.3638 17.8446 19.2585 17.657 19.071L16.597 18.011C16.504 17.9181 16.4303 17.8078 16.3799 17.6864C16.3296 17.565 16.3037 17.4349 16.3037 17.3035C16.3037 17.1721 16.3296 17.042 16.3799 16.9206C16.4303 16.7992 16.503 16.6889 16.596 16.596ZM4.929 4.929C5.11653 4.74153 5.37084 4.63621 5.636 4.63621C5.90116 4.63621 6.15547 4.74153 6.343 4.929L7.403 5.989C7.49598 6.08178 7.56977 6.19196 7.62016 6.31326C7.67055 6.43456 7.69656 6.56459 7.6967 6.69594C7.69684 6.82729 7.67111 6.95738 7.62097 7.07878C7.57084 7.20018 7.49728 7.31052 7.4045 7.4035C7.31172 7.49648 7.20154 7.57027 7.08024 7.62066C6.95894 7.67105 6.82891 7.69706 6.69756 7.6972C6.56621 7.69734 6.43612 7.67161 6.31472 7.62147C6.19332 7.57134 6.08298 7.49778 5.99 7.405L4.929 6.345C4.83602 6.25213 4.76226 6.14184 4.71194 6.02044C4.66162 5.89904 4.63571 5.76892 4.63571 5.6375C4.63571 5.50608 4.66162 5.37596 4.71194 5.25456C4.76226 5.13316 4.83602 5.02187 4.929 4.929Z" fill="white"/>
</svg>
